<svg width="130" height="39" viewBox="0 0 130 39" fill="none" xmlns="http://www.w3.org/2000/svg">
<g filter="url(#filter0_d)">
<path d="M25.72 22.56V30H4.32V1.52H13.08V22.56H25.72ZM44.9153 0.76C49.182 0.76 52.622 2.14667 55.2353 4.92C57.8486 7.66666 59.1553 11.28 59.1553 15.76C59.1553 20.2133 57.8353 23.8133 55.1953 26.56C52.582 29.3067 49.1286 30.68 44.8353 30.68C40.462 30.68 36.942 29.32 34.2753 26.6C31.6086 23.8533 30.2753 20.2267 30.2753 15.72C30.2753 11.2133 31.6086 7.6 34.2753 4.88C36.942 2.13333 40.4886 0.76 44.9153 0.76ZM44.7953 7.76C43.0353 7.76 41.6486 8.45333 40.6353 9.84C39.6486 11.2267 39.1553 13.1467 39.1553 15.6C39.1553 18.1333 39.6486 20.1067 40.6353 21.52C41.622 22.9067 43.022 23.6 44.8353 23.6C46.622 23.6 47.982 22.9067 48.9153 21.52C49.8486 20.1067 50.3153 18.0533 50.3153 15.36C50.3153 12.9867 49.822 11.1333 48.8353 9.8C47.8753 8.44 46.5286 7.76 44.7953 7.76ZM91.3513 14.32V30H85.7913L85.5113 27.08C83.5113 29.4533 80.7646 30.64 77.2713 30.64C73.2446 30.64 69.9779 29.2667 67.4713 26.52C64.9646 23.7733 63.7113 20.1867 63.7113 15.76C63.7113 11.3867 65.0579 7.81333 67.7513 5.04C70.4713 2.24 73.9646 0.839999 78.2313 0.839999C81.4846 0.839999 84.3113 1.82667 86.7113 3.8C89.1379 5.74667 90.5379 8.30667 90.9113 11.48H82.5113C81.9246 9.26667 80.4446 8.16 78.0713 8.16C74.3646 8.16 72.5113 10.84 72.5113 16.2C72.5113 18.68 73.0179 20.56 74.0313 21.84C75.0446 23.12 76.5379 23.76 78.5113 23.76C81.1779 23.76 82.8046 22.6533 83.3913 20.44H79.6313V14.32H91.3513ZM111.084 0.76C115.351 0.76 118.791 2.14667 121.404 4.92C124.017 7.66666 125.324 11.28 125.324 15.76C125.324 20.2133 124.004 23.8133 121.364 26.56C118.751 29.3067 115.297 30.68 111.004 30.68C106.631 30.68 103.111 29.32 100.444 26.6C97.7774 23.8533 96.4441 20.2267 96.4441 15.72C96.4441 11.2133 97.7774 7.6 100.444 4.88C103.111 2.13333 106.657 0.76 111.084 0.76ZM110.964 7.76C109.204 7.76 107.817 8.45333 106.804 9.84C105.817 11.2267 105.324 13.1467 105.324 15.6C105.324 18.1333 105.817 20.1067 106.804 21.52C107.791 22.9067 109.191 23.6 111.004 23.6C112.791 23.6 114.151 22.9067 115.084 21.52C116.017 20.1067 116.484 18.0533 116.484 15.36C116.484 12.9867 115.991 11.1333 115.004 9.8C114.044 8.44 112.697 7.76 110.964 7.76Z" fill="#4E254F"/>
</g>
<defs>
<filter id="filter0_d" x="0.320007" y="0.76001" width="129.004" height="37.92" filterUnits="userSpaceOnUse" color-interpolation-filters="sRGB">
<feFlood flood-opacity="0" result="BackgroundImageFix"/>
<feColorMatrix in="SourceAlpha" type="matrix" values="0 0 0 0 0 0 0 0 0 0 0 0 0 0 0 0 0 0 127 0"/>
<feOffset dy="4"/>
<feGaussianBlur stdDeviation="2"/>
<feColorMatrix type="matrix" values="0 0 0 0 0 0 0 0 0 0 0 0 0 0 0 0 0 0 0.25 0"/>
<feBlend mode="normal" in2="BackgroundImageFix" result="effect1_dropShadow"/>
<feBlend mode="normal" in="SourceGraphic" in2="effect1_dropShadow" result="shape"/>
</filter>
</defs>
</svg>
